<?xml version="1.0" encoding="UTF-8" standalone="no"?>
<!DOCTYPE svg PUBLIC "-//W3C//DTD SVG 1.1//EN" "http://www.w3.org/Graphics/SVG/1.1/DTD/svg11.dtd">
<svg version="1.1" xmlns="http://www.w3.org/2000/svg" xmlns:xlink="http://www.w3.org/1999/xlink" preserveAspectRatio="xMidYMid meet" viewBox="0 0 640 640" width="640" height="640"><defs><path d="M560 240C482.23 173.33 404.18 140 325.85 140C247.52 140 168.9 173.33 90 240" id="b1GfNok05J"></path><path d="M488.17 320C434.31 273.33 380.2 250 325.85 250C271.5 250 216.9 273.33 162.06 320" id="eI0dG1jpS"></path><path d="M410 400C383.41 373.33 355.12 360 325.12 360C295.12 360 263.41 373.33 230 400" id="bdQqFA2vk"></path><path d="M361.68 472.02C361.68 492.98 344.64 510 323.66 510C302.67 510 285.63 492.98 285.63 472.02C285.63 451.06 302.67 434.04 323.66 434.04C344.64 434.04 361.68 451.06 361.68 472.02Z" id="h4d5w104v"></path></defs><g><g><g><g><use xlink:href="#b1GfNok05J" opacity="1" fill-opacity="0" stroke="#000000" stroke-width="55" stroke-opacity="1"></use></g></g><g><g><use xlink:href="#eI0dG1jpS" opacity="1" fill-opacity="0" stroke="#000000" stroke-width="55" stroke-opacity="1"></use></g></g><g><g><use xlink:href="#bdQqFA2vk" opacity="1" fill-opacity="0" stroke="#000000" stroke-width="55" stroke-opacity="1"></use></g></g><g><use xlink:href="#h4d5w104v" opacity="1" fill="#000000" fill-opacity="1"></use></g></g></g></svg>