<?xml version="1.0" encoding="UTF-8" standalone="no"?>
<!DOCTYPE svg PUBLIC "-//W3C//DTD SVG 1.1//EN" "http://www.w3.org/Graphics/SVG/1.1/DTD/svg11.dtd">
<svg version="1.1" xmlns="http://www.w3.org/2000/svg" xmlns:xlink="http://www.w3.org/1999/xlink" preserveAspectRatio="xMidYMid meet" viewBox="0 0 640 640" width="640" height="640"><defs><path d="" id="a1Ld7FKusz"></path><path d="M250 192.26L70 192.26" id="btpa5Ph"></path><path d="M580 190L400 190" id="aWuFLmLwY"></path><path d="M162.34 137.52C170.07 137.52 178.1 145.79 186.42 162.34L140 162.34C147.15 145.79 154.6 137.52 162.34 137.52Z" id="b1oa4r71O4"></path><path d="M486.42 140C494.25 140 502.1 146.67 510 160L463.07 160C470.82 146.67 478.6 140 486.42 140Z" id="c1mjY9TwhO"></path><path d="M161.61 302.48C169.34 302.48 177.62 276.93 186.42 225.84L140 225.84C146.67 276.93 153.87 302.48 161.61 302.48Z" id="a9KkhnRf"></path><path d="M487.88 301.75C495.46 301.87 502.83 276.81 510 226.57L464.53 225.84C472.52 276.33 480.3 301.63 487.88 301.75Z" id="ahjn7VnrK"></path><path d="M160 260L160 284.96L490 285.69L490 257.23C463.62 260.07 439.49 256.69 417.61 247.08C384.78 232.66 346.97 222.37 323.65 222.92C276.37 224.03 270.99 236.04 227.88 250C199.15 259.31 176.52 262.64 160 260Z" id="b33y1ghGy0"></path><path d="M420 284.96C394.03 300.95 378.82 314.36 374.38 325.18C367.72 341.42 373.59 347.97 370 360C367.6 368.02 364.27 372.45 360 373.28L290 373.28C286.67 374.38 283.33 370.49 280 361.61C275 348.28 282.5 342.08 270 320C261.67 305.28 248.33 293.6 230 284.96L420 284.96Z" id="a8UQKc4GE"></path><path d="M240 330C209.72 348.33 188.9 371.67 177.54 400C166.18 428.33 164.27 461.67 171.82 500" id="an8vqXn5C"></path><path d="M413.65 330C443.93 348.33 464.75 371.67 476.11 400C487.47 428.33 489.38 461.67 481.83 500" id="aVzCICDZr"></path></defs><g><g><g><g><use xlink:href="#a1Ld7FKusz" opacity="1" fill-opacity="0" stroke="#12082c" stroke-width="2" stroke-opacity="1"></use></g></g><g><g><use xlink:href="#btpa5Ph" opacity="1" fill-opacity="0" stroke="#000000" stroke-width="30" stroke-opacity="1"></use></g></g><g><g><use xlink:href="#aWuFLmLwY" opacity="1" fill-opacity="0" stroke="#000000" stroke-width="30" stroke-opacity="1"></use></g></g><g><use xlink:href="#b1oa4r71O4" opacity="1" fill="#000000" fill-opacity="1"></use></g><g><use xlink:href="#c1mjY9TwhO" opacity="1" fill="#000000" fill-opacity="1"></use></g><g><use xlink:href="#a9KkhnRf" opacity="1" fill="#000000" fill-opacity="1"></use></g><g><use xlink:href="#ahjn7VnrK" opacity="1" fill="#000000" fill-opacity="1"></use></g><g><use xlink:href="#b33y1ghGy0" opacity="1" fill="#000000" fill-opacity="1"></use></g><g><use xlink:href="#a8UQKc4GE" opacity="1" fill="#000000" fill-opacity="1"></use></g><g><g><use xlink:href="#an8vqXn5C" opacity="1" fill-opacity="0" stroke="#000000" stroke-width="30" stroke-opacity="1"></use></g></g><g><g><use xlink:href="#aVzCICDZr" opacity="1" fill-opacity="0" stroke="#000000" stroke-width="30" stroke-opacity="1"></use></g></g></g></g></svg>