<?xml version="1.0" encoding="UTF-8" standalone="no"?>
<!DOCTYPE svg PUBLIC "-//W3C//DTD SVG 1.1//EN" "http://www.w3.org/Graphics/SVG/1.1/DTD/svg11.dtd">
<svg version="1.1" xmlns="http://www.w3.org/2000/svg" xmlns:xlink="http://www.w3.org/1999/xlink" preserveAspectRatio="xMidYMid meet" viewBox="0 0 640 640" width="640" height="640"><defs><path d="M393.88 356.64C361.94 356.64 106.45 356.64 74.52 356.64C85.57 309.1 138.37 285.33 232.93 285.33C327.48 285.33 381.13 309.1 393.88 356.64Z" id="c8lTcTzuJ"></path><path d="M393.88 356.64C361.94 356.64 106.45 356.64 74.52 356.64C85.57 309.1 138.37 285.33 232.93 285.33C327.48 285.33 381.13 309.1 393.88 356.64Z" id="e4Hs5r1hm"></path><path d="M408.39 392.3L60 392.3" id="l452JpBshn"></path><path d="M401.14 461.69C391.37 444.64 385.27 433.98 382.82 429.72C377.17 419.84 362.69 419.84 357.04 429.72C351.81 438.84 350.05 441.91 345.08 450.58C338.87 461.43 322.97 461.43 316.76 450.58C311.79 441.91 310.03 438.84 304.81 429.72C299.15 419.84 284.68 419.84 279.02 429.72C273.8 438.84 272.03 441.91 267.06 450.58C260.86 461.43 244.96 461.43 238.75 450.58C233.78 441.91 232.02 438.84 226.79 429.72C221.14 419.84 206.66 419.84 201.01 429.72C195.78 438.84 194.02 441.91 189.05 450.58C182.84 461.43 166.94 461.43 160.73 450.58C155.76 441.91 154 438.84 148.78 429.72C143.12 419.84 128.65 419.84 122.99 429.72C117.77 438.84 116 441.91 111.03 450.58C104.82 461.43 88.93 461.43 82.72 450.58C80.44 446.62 74.76 436.7 65.67 420.82" id="e1ajHqzd6H"></path><path d="M408.39 487.4L60 487.4" id="b790Kh5oMP"></path><path d="M397.51 521.86C397.51 521.86 397.51 521.86 397.51 521.86C364.84 521.86 103.55 521.86 70.89 521.86C70.89 521.86 70.89 521.86 70.89 521.86C70.89 541.55 87.14 557.52 107.18 557.52C165.24 557.52 303.15 557.52 361.22 557.52C381.26 557.52 397.51 541.55 397.51 521.86Z" id="f1XrMk3KLn"></path><path d="M397.51 521.86C397.51 521.86 397.51 521.86 397.51 521.86C364.84 521.86 103.55 521.86 70.89 521.86C70.89 521.86 70.89 521.86 70.89 521.86C70.89 541.55 87.14 557.52 107.18 557.52C165.24 557.52 303.15 557.52 361.22 557.52C381.26 557.52 397.51 541.55 397.51 521.86Z" id="a5NBBnLpcH"></path><path d="M409.29 373.61C409.29 365.68 408.47 357.77 406.84 350C406.84 350 406.84 350 406.84 350L550 350C550 445.51 550 505.2 550 529.08C550 548.88 533.88 564.9 514.08 564.77C496.99 564.66 454.28 564.38 385.95 563.94C386.42 563.66 386.72 563.48 386.83 563.41C400.76 555.09 409.29 540.07 409.29 523.84C409.29 491.41 409.29 408.89 409.29 373.61Z" id="f29XW1tKpJ"></path><path d="M550 280L320 280C329.85 283.19 336 285.19 338.47 285.99C366.2 294.98 389.39 314.33 403.21 340C403.21 340 403.21 340 403.21 340L550 340L550 280Z" id="as5U0Q8JW"></path><path d="M519.47 175.64C496.82 172.4 480 153.01 480 130.13C480 126.11 480 116.07 480 100L400 100C400 111.29 400 118.34 400 121.16C400 149.06 379.22 172.6 351.54 176.06C345.23 176.85 360.74 174.91 350.92 176.13C333.26 178.34 320 193.36 320 211.16C320 219.01 320 238.62 320 270L550 270C550 238.07 550 218.11 550 210.13C550 192.84 537.29 178.18 520.17 175.74C512.14 174.59 525.58 176.51 519.47 175.64Z" id="b1FPjYN90K"></path><path d="M490 78.03L390 78.03" id="f1u0HJKDj"></path></defs><g><g><g><use xlink:href="#c8lTcTzuJ" opacity="1" fill="#000000" fill-opacity="1"></use><g><use xlink:href="#c8lTcTzuJ" opacity="1" fill-opacity="0" stroke="#000000" stroke-width="1" stroke-opacity="0"></use></g></g><g><use xlink:href="#e4Hs5r1hm" opacity="1" fill="#000000" fill-opacity="0"></use><g><use xlink:href="#e4Hs5r1hm" opacity="1" fill-opacity="0" stroke="#000000" stroke-width="20" stroke-opacity="1"></use></g></g><g><use xlink:href="#l452JpBshn" opacity="1" fill="#000000" fill-opacity="0"></use><g><use xlink:href="#l452JpBshn" opacity="1" fill-opacity="0" stroke="#000000" stroke-width="20" stroke-opacity="1"></use></g></g><g><use xlink:href="#e1ajHqzd6H" opacity="1" fill="#000000" fill-opacity="0"></use><g><use xlink:href="#e1ajHqzd6H" opacity="1" fill-opacity="0" stroke="#000000" stroke-width="20" stroke-opacity="1"></use></g></g><g><use xlink:href="#b790Kh5oMP" opacity="1" fill="#000000" fill-opacity="0"></use><g><use xlink:href="#b790Kh5oMP" opacity="1" fill-opacity="0" stroke="#000000" stroke-width="20" stroke-opacity="1"></use></g></g><g><use xlink:href="#f1XrMk3KLn" opacity="1" fill="#000000" fill-opacity="1"></use><g><use xlink:href="#f1XrMk3KLn" opacity="1" fill-opacity="0" stroke="#000000" stroke-width="1" stroke-opacity="0"></use></g></g><g><use xlink:href="#a5NBBnLpcH" opacity="1" fill="#000000" fill-opacity="0"></use><g><use xlink:href="#a5NBBnLpcH" opacity="1" fill-opacity="0" stroke="#000000" stroke-width="20" stroke-opacity="1"></use></g></g><g><use xlink:href="#f29XW1tKpJ" opacity="1" fill="#000000" fill-opacity="1"></use></g><g><use xlink:href="#as5U0Q8JW" opacity="1" fill="#000000" fill-opacity="1"></use></g><g><use xlink:href="#b1FPjYN90K" opacity="1" fill="#000000" fill-opacity="1"></use></g><g><g><use xlink:href="#f1u0HJKDj" opacity="1" fill-opacity="0" stroke="#000000" stroke-width="30" stroke-opacity="1"></use></g></g></g></g></svg>