<?xml version="1.0" encoding="UTF-8" standalone="no"?>
<!DOCTYPE svg PUBLIC "-//W3C//DTD SVG 1.1//EN" "http://www.w3.org/Graphics/SVG/1.1/DTD/svg11.dtd">
<svg version="1.1" xmlns="http://www.w3.org/2000/svg" xmlns:xlink="http://www.w3.org/1999/xlink" preserveAspectRatio="xMidYMid meet" viewBox="0 0 640 640" width="640" height="640"><defs><path d="M140 90C238.73 66.61 300.68 113.27 325.84 230C357.31 107.36 422.03 61.69 520 92.99C617.97 124.29 647.97 201.42 610 324.38L374.74 325.11L341.9 392.26L268.18 211.97L214.16 325.11L40 323.65C7.93 191.28 41.27 113.39 140 90Z" id="a3327yIkOB"></path><path d="M160 490C205.62 529.66 261.14 564.23 326.57 593.72C383.6 569.76 434.74 537.88 480 498.1C525.26 458.32 564.62 410.63 598.1 355.04L393.72 355.77L337.52 461.61L265.26 287.88L233.14 355.04L52.85 355.77C78.66 405.6 114.38 450.34 160 490Z" id="kmZpxrhU5"></path></defs><g><g><g><use xlink:href="#a3327yIkOB" opacity="1" fill="#000000" fill-opacity="1"></use></g><g><use xlink:href="#kmZpxrhU5" opacity="1" fill="#000000" fill-opacity="1"></use></g></g></g></svg>