<?xml version="1.0" encoding="UTF-8" standalone="no"?>
<!DOCTYPE svg PUBLIC "-//W3C//DTD SVG 1.1//EN" "http://www.w3.org/Graphics/SVG/1.1/DTD/svg11.dtd">
<svg version="1.1" xmlns="http://www.w3.org/2000/svg" xmlns:xlink="http://www.w3.org/1999/xlink" preserveAspectRatio="xMidYMid meet" viewBox="0 0 640 640" width="640" height="640"><defs><path d="M283.8 199.05C283.8 248.07 243.17 287.81 193.07 287.81C142.96 287.81 102.34 248.07 102.34 199.05C102.34 150.03 142.96 110.29 193.07 35.55C243.17 110.29 283.8 150.03 283.8 199.05Z" id="d2C3YoWQD3"></path><path d="M500 304.85C500.04 337.53 475.64 364.05 445.51 364.08C415.38 364.11 390.93 337.65 390.89 304.97C390.86 272.29 415.25 245.78 445.33 195.92C475.51 245.71 499.96 272.18 500 304.85Z" id="cGN7baZJF"></path><path d="M297.74 464.89C297.74 495.32 273.62 520 243.87 520C214.12 520 190 495.32 190 464.89C190 434.45 214.12 409.77 243.87 363.36C273.62 409.77 297.74 434.45 297.74 464.89Z" id="k853mnJtAh"></path></defs><g><g><g><use xlink:href="#d2C3YoWQD3" opacity="1" fill="#000000" fill-opacity="1"></use></g><g><use xlink:href="#cGN7baZJF" opacity="1" fill="#000000" fill-opacity="1"></use></g><g><use xlink:href="#k853mnJtAh" opacity="1" fill="#000000" fill-opacity="1"></use></g></g></g></svg>