<?xml version="1.0" encoding="UTF-8" standalone="no"?>
<!DOCTYPE svg PUBLIC "-//W3C//DTD SVG 1.1//EN" "http://www.w3.org/Graphics/SVG/1.1/DTD/svg11.dtd">
<svg version="1.1" xmlns="http://www.w3.org/2000/svg" xmlns:xlink="http://www.w3.org/1999/xlink" preserveAspectRatio="xMidYMid meet" viewBox="0 0 640 640" width="640" height="640"><defs><path d="M64 64L576 64L576 576L64 576L64 64Z" id="b4RM8yPNb"></path><path d="M150 360L210 360C210 360 210 360 210 360C210 348.95 218.95 340 230 340C234 340 226 340 230 340C241.17 340 250.35 348.82 250.78 359.98C250.94 363.99 250.63 355.99 250.78 359.98C251.21 370.91 242.47 380 231.54 380C227.23 380 234.31 380 230 380C218.95 380 210 371.05 210 360C210 360 210 360 210 360L150 360C150 429.26 150 472.55 150 489.87C150 506.51 163.49 520 180.13 520C197.45 520 240.74 520 310 520L310 450C293.62 450 283.39 450 279.29 450C274.16 450 270 445.84 270 440.71C270 438.57 270 443.08 270 441.35C270 435.08 275.08 430 281.35 430C299.08 430 341.74 430 359.68 430C365.38 430 370 434.62 370 440.32C370 442.26 370 436.92 370 438.65C370 444.92 364.92 450 358.65 450C352.16 450 335.94 450 310 450L310 520C396.09 520 449.9 520 471.42 520C487.2 520 500 507.2 500 491.42C500 473.9 500 430.09 500 360L430 360C430 360.45 430 360.73 430 360.84C430 371.42 421.42 380 410.84 380C406.67 380 414.67 380 410.84 380C399.33 380 390 370.67 390 359.16C390 355.33 390 363.33 390 359.16C390 348.58 398.58 340 409.16 340C413.33 340 406 340 410 340C421.05 340 430 348.95 430 360C430 360 430 360 430 360L500 360C500 317.4 500 290.77 500 280.12C500 263.46 486.54 249.94 469.88 249.87C405.9 249.59 244.1 248.88 180.13 248.6C163.51 248.53 150 261.98 150 278.6C150 289.45 150 316.58 150 360Z" id="aqy1jW7Kx"></path><path d="M80 384.38C80 406.05 96.67 427.92 130 450L130 320C96.67 341.25 80 362.71 80 384.38Z" id="b2BHpETtB5"></path><path d="M570 387.15C570 407.15 553.33 428.1 520 450L520 330C553.33 348.1 570 367.15 570 387.15Z" id="c1m1wilqYM"></path><path d="M320 196.36C320 196.36 320 196.36 320 196.36C341.12 196.36 358.41 179.54 358.97 158.42C359.18 150.74 358.77 166.01 358.97 158.42C359.54 137.37 342.62 120 321.57 120C313.25 120 325.09 120 316.36 120C296.28 120 280 136.28 280 156.36C280 164.36 280 149.09 280 156.36C280 178.46 297.91 196.36 320 196.36C320 196.36 320 196.36 320 196.36L320 240" id="c14nZMxos"></path></defs><g><g><g></g><g><use xlink:href="#aqy1jW7Kx" opacity="1" fill="#000000" fill-opacity="1"></use></g><g><use xlink:href="#b2BHpETtB5" opacity="1" fill="#000000" fill-opacity="1"></use></g><g><use xlink:href="#c1m1wilqYM" opacity="1" fill="#000000" fill-opacity="1"></use></g><g><g><use xlink:href="#c14nZMxos" opacity="1" fill-opacity="0" stroke="#000000" stroke-width="30" stroke-opacity="1"></use></g></g></g></g></svg>