<?xml version="1.0" encoding="UTF-8" standalone="no"?>
<!DOCTYPE svg PUBLIC "-//W3C//DTD SVG 1.1//EN" "http://www.w3.org/Graphics/SVG/1.1/DTD/svg11.dtd">
<svg version="1.1" xmlns="http://www.w3.org/2000/svg" xmlns:xlink="http://www.w3.org/1999/xlink" preserveAspectRatio="xMidYMid meet" viewBox="0 0 640 640" width="640" height="640"><defs><path d="M49.8 300C52.94 296.41 144.68 294.75 325 295C338.22 331.76 338.15 350.09 324.8 350C304.77 349.86 274.43 361.84 274.56 400C274.7 438.16 312.32 437.27 314.41 440C316.5 442.73 284.95 544.8 289.8 550C294.65 555.2 355.17 554.9 359.8 550C364.43 545.1 333.36 442.56 335.5 440C337.64 437.44 374.01 438.35 374.56 400C375.12 361.65 344.03 350.05 324.8 350C311.98 349.97 312.05 331.64 325 295C504.98 295.34 596.58 297.01 599.8 300C604.63 304.49 604.93 595.19 599.8 600C594.67 604.81 53.97 604.81 49.8 600C45.63 595.19 45.08 305.38 49.8 300Z" id="a8ALymV766"></path><path d="" id="a9Rktht5o"></path><path d="M120 300C121.13 139.49 189.46 59.49 324.97 60C460.48 60.51 528.82 140.51 530 300L580 300C574.2 106.23 489.41 9.57 325.62 10C161.83 10.43 76.62 107.1 70 300L120 300Z" id="ajt92XQuV"></path></defs><g><g><g><use xlink:href="#a8ALymV766" opacity="1" fill="#000000" fill-opacity="1"></use></g><g><g><use xlink:href="#a9Rktht5o" opacity="1" fill-opacity="0" stroke="#5738ae" stroke-width="1" stroke-opacity="1"></use></g></g><g><use xlink:href="#ajt92XQuV" opacity="1" fill="#000000" fill-opacity="1"></use></g></g></g></svg>