<?xml version="1.0" encoding="UTF-8" standalone="no"?>
<!DOCTYPE svg PUBLIC "-//W3C//DTD SVG 1.1//EN" "http://www.w3.org/Graphics/SVG/1.1/DTD/svg11.dtd">
<svg version="1.1" xmlns="http://www.w3.org/2000/svg" xmlns:xlink="http://www.w3.org/1999/xlink" preserveAspectRatio="xMidYMid meet" viewBox="0 0 640 640" width="640" height="640"><defs><path d="M331.68 16.03C346.47 16.03 358.47 28.03 358.47 42.82C358.47 97.82 358.47 235.3 358.47 455.28C363.38 457.05 366.45 458.16 367.67 458.6C398.56 469.75 418.95 499.31 418.39 532.14C418.09 549.71 418.47 527.41 418.26 539.95C417.5 584.38 381.27 620 336.84 620C317.79 620 344.38 620 326.26 620C279.5 620 241.6 582.1 241.6 535.34C241.6 523.72 241.6 549.72 241.6 532.15C241.6 499.12 262.08 469.55 293 457.93C293.93 457.57 296.28 456.69 300.03 455.28C300.03 236.01 300.03 98.97 300.03 44.15C300.03 28.62 312.62 16.03 328.15 16.03C334.21 16.03 325.35 16.03 331.68 16.03Z" id="a1MRWWqF"></path><path d="M393.53 537.64C393.53 570.97 364.73 598.04 329.25 598.04C293.77 598.04 264.97 570.97 264.97 537.64C264.97 504.31 293.77 477.24 329.25 477.24C364.73 477.24 393.53 504.31 393.53 537.64Z" id="bovIDqVJf"></path><path d="M329.45 235.66L329.45 499.21" id="c1bEntF34B"></path></defs><g><g><g><g><use xlink:href="#a1MRWWqF" opacity="1" fill-opacity="0" stroke="#060400" stroke-width="20" stroke-opacity="1"></use></g></g><g><use xlink:href="#bovIDqVJf" opacity="1" fill="#000000" fill-opacity="1"></use></g><g><g><use xlink:href="#c1bEntF34B" opacity="1" fill-opacity="0" stroke="#060400" stroke-width="20" stroke-opacity="1"></use></g></g></g></g></svg>