<?xml version="1.0" encoding="UTF-8" standalone="no"?>
<!DOCTYPE svg PUBLIC "-//W3C//DTD SVG 1.1//EN" "http://www.w3.org/Graphics/SVG/1.1/DTD/svg11.dtd">
<svg version="1.1" xmlns="http://www.w3.org/2000/svg" xmlns:xlink="http://www.w3.org/1999/xlink" preserveAspectRatio="xMidYMid meet" viewBox="0 0 640 640" width="640" height="640"><defs><path d="M200 150L200 50" id="baJvlr5GKN"></path><path d="M450 150L450 50" id="a1hrOZ7KGE"></path><path d="M480 100C480 100 480 100 480 100C536.81 100 575.11 158.08 552.73 210.3C532.18 258.24 495.57 343.67 469.46 404.59C457.66 432.14 430.57 450 400.59 450C360.48 450 289.82 450 249.77 450C219.58 450 192.29 432.01 180.39 404.25C154.31 343.4 117.82 258.24 97.27 210.3C74.89 158.08 113.19 100 170 100C170 100 170 100 170 100" id="bb1TkqrXB"></path><path d="M440 540C440 540 440 540 440 540C440 556.57 426.57 570 410 570C368 570 274.93 570 233.67 570C215.07 570 200 554.93 200 536.33C200 529.07 200 543.07 200 536.33C200 516.27 216.27 500 236.33 500C253.89 500 275.31 500 294.14 500C310.71 500 324.14 486.57 324.14 470C324.14 470 324.14 470 324.14 470" id="c1fNZQ06Ds"></path><path d="M480 490C485.52 490 490 494.48 490 500C490 506 490 498 490 500C490 516.57 476.57 530 460 530C446 530 434 530 420 530C403.43 530 390 516.57 390 500C390 498 390 506 390 500C390 494.48 394.48 490 400 490C418 490 462 490 480 490Z" id="cgh4DqZpn"></path></defs><g><g><g><g><use xlink:href="#baJvlr5GKN" opacity="1" fill-opacity="0" stroke="#000000" stroke-width="40" stroke-opacity="1"></use></g></g><g><g><use xlink:href="#a1hrOZ7KGE" opacity="1" fill-opacity="0" stroke="#000000" stroke-width="40" stroke-opacity="1"></use></g></g><g><g><use xlink:href="#bb1TkqrXB" opacity="1" fill-opacity="0" stroke="#060400" stroke-width="40" stroke-opacity="1"></use></g></g><g><g><use xlink:href="#c1fNZQ06Ds" opacity="1" fill-opacity="0" stroke="#060400" stroke-width="40" stroke-opacity="1"></use></g></g><g><use xlink:href="#cgh4DqZpn" opacity="1" fill="#000000" fill-opacity="1"></use></g></g></g></svg>