<?xml version="1.0" encoding="UTF-8" standalone="no"?>
<!DOCTYPE svg PUBLIC "-//W3C//DTD SVG 1.1//EN" "http://www.w3.org/Graphics/SVG/1.1/DTD/svg11.dtd">
<svg version="1.1" xmlns="http://www.w3.org/2000/svg" xmlns:xlink="http://www.w3.org/1999/xlink" preserveAspectRatio="xMidYMid meet" viewBox="0 0 640 640" width="640" height="640"><defs><path d="M46.16 560L43.1 294.76" id="kGNSaXXTc"></path><path d="M451.17 560L451.17 453.91L43.1 453.91" id="btHdm2hjG"></path><path d="M78.59 411.83L149.56 411.83C155.83 393.06 159.76 381.32 161.33 376.63C164.76 366.37 175.18 360.17 185.83 362.05C242.44 372 394.66 398.77 451.49 408.77C461.57 410.54 468.91 419.29 468.91 429.52C468.91 429.52 468.91 429.52 468.91 429.52L78.59 429.52" id="a2Rt08c27h"></path><path d="M115.99 373.42C125.74 373.42 134.7 378.77 139.32 387.35C140.68 389.88 144.1 396.22 149.56 406.35L78.59 406.35C83.72 396.82 86.93 390.86 88.22 388.48C93.21 379.2 102.9 373.42 113.43 373.42C117.11 373.42 112.06 373.42 115.99 373.42Z" id="d5BnpFWPWx"></path><path d="M437.71 221.6C437.71 242.46 419.89 259.4 397.94 259.4C375.99 259.4 358.18 242.46 358.18 221.6C358.18 200.73 375.99 183.79 397.94 183.79C419.89 183.79 437.71 200.73 437.71 221.6Z" id="asQKZ53A"></path><path d="M593.1 560L567.41 336.84L441.38 249.03" id="b13ekA6rHY"></path><path d="M504.39 418.54L504.39 344.15L451.17 259.4" id="c10o26xoqa"></path><path d="M355.73 276.31L408.47 325.86L456.06 263.06" id="i17EGHbhKH"></path><path d="M343.61 242.19C347.06 240.8 351.02 242.57 352.46 246.13C356.46 256 345.96 265.91 346.07 266.19C346.07 266.19 346.07 266.19 346.07 266.19C345.96 265.91 331.49 266.04 327.5 256.17C326.06 252.61 327.68 248.59 331.13 247.21C334.58 245.82 338.4 247.23 339.84 250.79C338.4 247.23 340.17 243.58 343.61 242.19Z" id="b4aqEWNf2"></path></defs><g><g><g><g><use xlink:href="#kGNSaXXTc" opacity="1" fill-opacity="0" stroke="#060400" stroke-width="30" stroke-opacity="1"></use></g></g><g><g><use xlink:href="#btHdm2hjG" opacity="1" fill-opacity="0" stroke="#060400" stroke-width="30" stroke-opacity="1"></use></g></g><g><use xlink:href="#a2Rt08c27h" opacity="1" fill="#000000" fill-opacity="1"></use><g><use xlink:href="#a2Rt08c27h" opacity="1" fill-opacity="0" stroke="#060400" stroke-width="0" stroke-opacity="1"></use></g></g><g><use xlink:href="#d5BnpFWPWx" opacity="1" fill="#000000" fill-opacity="1"></use><g><use xlink:href="#d5BnpFWPWx" opacity="1" fill-opacity="0" stroke="#060400" stroke-width="0" stroke-opacity="1"></use></g></g><g><use xlink:href="#asQKZ53A" opacity="1" fill="#0e0a01" fill-opacity="1"></use><g><use xlink:href="#asQKZ53A" opacity="1" fill-opacity="0" stroke="#060400" stroke-width="0" stroke-opacity="1"></use></g></g><g><g><use xlink:href="#b13ekA6rHY" opacity="1" fill-opacity="0" stroke="#060400" stroke-width="30" stroke-opacity="1"></use></g></g><g><g><use xlink:href="#c10o26xoqa" opacity="1" fill-opacity="0" stroke="#060400" stroke-width="30" stroke-opacity="1"></use></g></g><g><g><use xlink:href="#i17EGHbhKH" opacity="1" fill-opacity="0" stroke="#060400" stroke-width="30" stroke-opacity="1"></use></g></g><g><use xlink:href="#b4aqEWNf2" opacity="1" fill="#0e0a01" fill-opacity="1"></use><g><use xlink:href="#b4aqEWNf2" opacity="1" fill-opacity="0" stroke="#060400" stroke-width="0" stroke-opacity="1"></use></g></g></g></g></svg>